<svg width="300" height="370" viewBox="0 0 300 370" fill="none" xmlns="http://www.w3.org/2000/svg">
<path d="M0.656616 108.817L178.274 0.473904L216.031 23.7842L222.597 28.7089L228.506 32.977V63.5102L299.422 110.131L274.799 290.375L150.039 369.499L71.5724 321.893L0.656616 108.817Z" fill="#FCF5E2"/>
<path d="M133.412 27.9505C136.456 28.1035 166.212 48.1326 171.197 51.3573C164.579 55.2124 158.089 59.2526 151.518 63.1805C146.35 66.27 141.069 69.1618 136.042 72.483C130.49 70.8053 124.76 66.2772 119.826 63.2127L98.1869 49.782C102.033 46.8817 106.398 44.4942 110.533 42.0378C118.25 37.4539 125.986 32.9973 133.412 27.9505Z" fill="#EF5952"/>
<path d="M177.917 0.423996C180.166 0.833075 211.527 20.8931 215.723 23.7067C208.922 27.6355 202.188 31.6764 195.521 35.8294C190.429 38.9503 185.143 41.9912 180.338 45.5396C180.318 45.5488 180.299 45.5639 180.278 45.5672C180.275 45.5672 179.504 45.6433 179.495 45.6407C177.692 45.0688 174.126 42.2532 172.357 41.1428C162.375 34.8819 152.424 28.678 142.682 22.0428C153.992 14.2283 166.617 8.28055 177.917 0.423996Z" fill="#C4354A"/>
<path d="M228.744 63.6028C234.767 67.5576 241.107 71.0975 247.214 74.9335C262.067 84.2642 276.812 93.6435 291.884 102.621C284.028 108.308 275.551 113.237 267.314 118.348C258.971 123.72 250.502 128.934 242.066 134.159C237.573 136.942 232.974 139.575 228.654 142.623C228.505 116.283 228.535 89.9427 228.744 63.6028Z" fill="#260242"/>
<path d="M83.8652 55.9064L84.2453 56.2459C84.7194 58.7851 84.3622 61.8312 84.3616 64.4354L84.3681 82.6397L84.487 151.189C79.2471 148.163 74.1806 144.759 69.0674 141.52C58.9238 135.011 48.7108 128.613 38.4285 122.326C28.1503 116.128 18.2871 109.066 7.7666 103.301C14.0584 98.6654 21.257 94.7131 27.9073 90.5829C46.5116 79.0283 65.7009 68.125 83.8652 55.9064Z" fill="#260242"/>
<path d="M92.7001 57.5027C97.2347 59.6866 101.492 62.6605 105.777 65.3067C114.163 70.3872 122.418 75.6716 130.543 81.1597C131.005 92.1956 130.653 103.404 130.661 114.459L130.666 180.006C118.529 171.607 105.275 165.037 92.9312 156.989C93.1886 137.568 92.9109 118.104 92.8872 98.6792C92.8708 84.999 93.291 71.1638 92.7001 57.5027Z" fill="#EF5952"/>
<path d="M219.568 32.6625C219.694 32.8745 219.888 33.0597 219.946 33.3C220.385 35.1458 219.771 52.7599 219.788 56.2026L219.954 147.26C215.977 150.558 211.036 153.065 206.609 155.716C199.365 160.054 192.093 164.417 185.008 169.012L184.687 169.089C184.39 168.448 184.857 64.7335 184.841 53.6384C196.323 46.5416 207.665 39.0344 219.568 32.6625Z" fill="#C4354A"/>
<path d="M175.457 58.9381L175.674 58.9998C176.157 60.015 176.105 140.166 176.081 148.784C176.056 157.481 175.48 166.269 175.991 174.946C167.221 180.125 158.834 185.896 149.88 190.776C148.006 189.887 146.186 188.826 144.361 187.837L139.565 185.313C139.43 150.774 139.507 116.235 139.797 81.6981C146.096 77.0446 152.952 73.0444 159.578 68.8735C164.848 65.5562 170.017 61.9691 175.457 58.9381Z" fill="#C4354A"/>
<path d="M0.0614859 109.146C2.99793 110.433 5.77349 112.921 8.58649 114.559C22.8274 122.85 36.4498 132.057 50.4544 140.714L112.497 178.874C117.748 182.074 122.921 185.42 128.21 188.552C133.851 191.893 139.654 194.972 144.999 198.783C145.314 216.601 145.084 234.465 145.106 252.287L145.178 366.405C140.183 364.701 135.281 361.041 130.812 358.255C121.638 352.537 112.612 346.559 103.389 340.927C68.8912 320.326 34.548 299.47 0.359601 278.359C-0.338394 263.823 0.188864 249.005 0.221695 234.451L0.230893 158.641C0.259128 142.187 0.684626 125.588 0.0614859 109.146Z" fill="#4B4EAA"/>
<path d="M45.2372 193.824C64.107 204.793 83.9474 217.862 102.762 228.954V286.307C95.3388 283.192 88.1507 278.066 81.1787 274.16L45.0642 251.91L45.2372 193.824Z" fill="#B5C4EE"/>
<path d="M299.282 109.775C299.332 109.808 299.393 109.83 299.434 109.875C299.447 109.891 299.799 110.415 299.81 110.447C300.244 111.751 299.761 150.224 299.757 153.846C300.08 194.862 300.081 235.878 299.761 276.895C296.722 279.027 293.41 280.849 290.255 282.81L273.396 293.337L219.444 326.959C205.298 335.844 191.077 344.608 176.782 353.25C169.558 357.68 162.513 362.913 154.793 366.401L154.501 366.413C153.667 363.986 154.281 332.797 154.278 327.412L154.271 244.888C154.309 229.736 154.155 214.55 154.614 199.405C161.375 194.479 168.82 190.354 175.944 185.972L214.849 162.045L261.207 133.044C273.751 125.143 286.35 117.012 299.282 109.775Z" fill="#4B4EAA"/>
<path d="M283.902 136.979C284.032 137.127 284.214 137.242 284.293 137.423C284.848 138.697 284.321 255.622 284.347 267.748C279.481 271.36 274.09 274.37 268.974 277.621C258.152 284.549 247.218 291.298 236.173 297.867C235.118 293.862 235.703 288.518 235.701 284.372L235.726 260.631L235.663 167.93C239.158 165.184 243.366 163.035 247.122 160.625C253.41 156.589 259.613 152.422 265.943 148.45C271.944 144.682 278.137 141.103 283.902 136.979Z" fill="#F3715F"/>
<path d="M219.597 177.777C219.852 178.05 219.899 178.553 219.939 178.902C220.406 182.992 220.004 187.648 220.024 191.79C220.083 201.599 220.091 211.408 220.048 221.218C219.865 250.132 219.848 279.045 219.997 307.957C210.01 313.549 200.334 319.754 190.63 325.817C183.942 329.994 177.128 333.975 170.522 338.28C169.741 334.139 170.195 329.19 170.189 324.957L170.171 299.443C170.132 269.053 169.749 238.645 170.032 208.258C185.577 197.406 203.469 187.985 219.597 177.777Z" fill="#F3715F"/>
<path d="M57.1266 222.742L88.3164 241.456V260.827L57.1266 241.456V222.742Z" fill="#D9D9D9"/>
<line x1="62.0363" y1="240.785" x2="62.0363" y2="230.965" stroke="#C4354A" stroke-width="2" stroke-linecap="round"/>
<line x1="70.5724" y1="245.381" x2="70.5724" y2="235.562" stroke="#C4354A" stroke-width="2" stroke-linecap="round"/>
<path d="M83.3917 250.977L82.735 251.306L81.7501 251.306L81.4218 251.306L80.7652 250.977L80.1085 250.649L79.7802 249.992L79.4519 249.336L79.4519 248.679L79.4519 246.053L79.4519 243.426L79.4519 242.113L79.7802 241.456L80.7652 241.128L81.7501 241.456L82.735 242.113L83.3917 243.426" stroke="#C4354A" stroke-width="2" stroke-linecap="round"/>
<line x1="74.7908" y1="238.163" x2="71.2338" y2="235.94" stroke="#C4354A" stroke-width="2" stroke-linecap="round"/>
<line x1="74.1478" y1="248.066" x2="71.2879" y2="246.432" stroke="#C4354A" stroke-width="2" stroke-linecap="round"/>
<line x1="73.4688" y1="242.062" x2="71.1932" y2="240.545" stroke="#C4354A" stroke-width="2" stroke-linecap="round"/>
<path d="M66.5872 243.421L65.9911 237.845" stroke="#C4354A" stroke-width="2" stroke-linecap="round"/>
<path d="M62.5324 235.478L65.9911 237.517L66.3195 236.86L66.6478 236.203L66.6478 235.547L66.6478 234.89L66.6478 234.233L66.3195 233.248L65.9911 232.428L65.6629 231.935L65.3345 231.607L64.6779 231.279L64.0212 230.95L62.5324 230.622" stroke="#C4354A" stroke-width="2" stroke-linecap="round"/>
</svg>
