<svg width="476" height="252" viewBox="0 0 476 252" fill="none" xmlns="http://www.w3.org/2000/svg">
<rect x="288" y="145" width="188" height="93" fill="#D9D9D9"/>
<path d="M22.8 99V41H2.4V29H56.4V41H36V99H22.8ZM65.7891 99V29H78.3891V55.5H80.1891C80.7224 54.4333 81.5557 53.3667 82.6891 52.3C83.8224 51.2333 85.3224 50.3667 87.1891 49.7C89.1224 48.9667 91.5557 48.6 94.4891 48.6C98.3557 48.6 101.722 49.5 104.589 51.3C107.522 53.0333 109.789 55.4667 111.389 58.6C112.989 61.6667 113.789 65.2667 113.789 69.4V99H101.189V70.4C101.189 66.6667 100.256 63.8667 98.3891 62C96.5891 60.1333 93.9891 59.2 90.5891 59.2C86.7224 59.2 83.7224 60.5 81.5891 63.1C79.4557 65.6333 78.3891 69.2 78.3891 73.8V99H65.7891ZM150.01 100.4C145.077 100.4 140.71 99.3667 136.91 97.3C133.177 95.1667 130.243 92.2 128.11 88.4C126.043 84.5333 125.01 80 125.01 74.8V73.6C125.01 68.4 126.043 63.9 128.11 60.1C130.177 56.2333 133.077 53.2667 136.81 51.2C140.543 49.0667 144.877 48 149.81 48C154.677 48 158.91 49.1 162.51 51.3C166.11 53.4333 168.91 56.4333 170.91 60.3C172.91 64.1 173.91 68.5333 173.91 73.6V77.9H137.81C137.943 81.3 139.21 84.0667 141.61 86.2C144.01 88.3333 146.943 89.4 150.41 89.4C153.943 89.4 156.543 88.6333 158.21 87.1C159.877 85.5667 161.143 83.8667 162.01 82L172.31 87.4C171.377 89.1333 170.01 91.0333 168.21 93.1C166.477 95.1 164.143 96.8333 161.21 98.3C158.277 99.7 154.543 100.4 150.01 100.4ZM137.91 68.5H161.11C160.843 65.6333 159.677 63.3333 157.61 61.6C155.61 59.8667 152.977 59 149.71 59C146.31 59 143.61 59.8667 141.61 61.6C139.61 63.3333 138.377 65.6333 137.91 68.5ZM6.6 227V157H31.1L43.2 218H45L57.1 157H81.6V227H68.8V166.7H67L55 227H33.2L21.2 166.7H19.4V227H6.6ZM118.784 228.4C113.85 228.4 109.417 227.4 105.484 225.4C101.55 223.4 98.4503 220.5 96.1836 216.7C93.9169 212.9 92.7836 208.333 92.7836 203V201.4C92.7836 196.067 93.9169 191.5 96.1836 187.7C98.4503 183.9 101.55 181 105.484 179C109.417 177 113.85 176 118.784 176C123.717 176 128.15 177 132.084 179C136.017 181 139.117 183.9 141.384 187.7C143.65 191.5 144.784 196.067 144.784 201.4V203C144.784 208.333 143.65 212.9 141.384 216.7C139.117 220.5 136.017 223.4 132.084 225.4C128.15 227.4 123.717 228.4 118.784 228.4ZM118.784 217.2C122.65 217.2 125.85 215.967 128.384 213.5C130.917 210.967 132.184 207.367 132.184 202.7V201.7C132.184 197.033 130.917 193.467 128.384 191C125.917 188.467 122.717 187.2 118.784 187.2C114.917 187.2 111.717 188.467 109.184 191C106.65 193.467 105.384 197.033 105.384 201.7V202.7C105.384 207.367 106.65 210.967 109.184 213.5C111.717 215.967 114.917 217.2 118.784 217.2ZM165.349 227L149.549 177.4H162.949L174.449 217.8H176.249L187.749 177.4H201.149L185.349 227H165.349ZM209.734 227V177.4H222.334V227H209.734ZM216.034 171.6C213.768 171.6 211.834 170.867 210.234 169.4C208.701 167.933 207.934 166 207.934 163.6C207.934 161.2 208.701 159.267 210.234 157.8C211.834 156.333 213.768 155.6 216.034 155.6C218.368 155.6 220.301 156.333 221.834 157.8C223.368 159.267 224.134 161.2 224.134 163.6C224.134 166 223.368 167.933 221.834 169.4C220.301 170.867 218.368 171.6 216.034 171.6ZM258.897 228.4C253.964 228.4 249.597 227.367 245.797 225.3C242.064 223.167 239.13 220.2 236.997 216.4C234.93 212.533 233.897 208 233.897 202.8V201.6C233.897 196.4 234.93 191.9 236.997 188.1C239.064 184.233 241.964 181.267 245.697 179.2C249.43 177.067 253.764 176 258.697 176C263.564 176 267.797 177.1 271.397 179.3C274.997 181.433 277.797 184.433 279.797 188.3C281.797 192.1 282.797 196.533 282.797 201.6V205.9H246.697C246.83 209.3 248.097 212.067 250.497 214.2C252.897 216.333 255.83 217.4 259.297 217.4C262.83 217.4 265.43 216.633 267.097 215.1C268.764 213.567 270.03 211.867 270.897 210L281.197 215.4C280.264 217.133 278.897 219.033 277.097 221.1C275.364 223.1 273.03 224.833 270.097 226.3C267.164 227.7 263.43 228.4 258.897 228.4ZM246.797 196.5H269.997C269.73 193.633 268.564 191.333 266.497 189.6C264.497 187.867 261.864 187 258.597 187C255.197 187 252.497 187.867 250.497 189.6C248.497 191.333 247.264 193.633 246.797 196.5Z" fill="#FCF5E2"/>
<path d="M291.612 227V215.4H300.812V168.6H291.612V157H327.612C331.878 157 335.578 157.733 338.712 159.2C341.912 160.6 344.378 162.633 346.112 165.3C347.912 167.9 348.812 171.033 348.812 174.7V175.7C348.812 178.9 348.212 181.533 347.012 183.6C345.812 185.6 344.378 187.167 342.712 188.3C341.112 189.367 339.578 190.133 338.112 190.6V192.4C339.578 192.8 341.178 193.567 342.912 194.7C344.645 195.767 346.112 197.333 347.312 199.4C348.578 201.467 349.212 204.167 349.212 207.5V208.5C349.212 212.367 348.312 215.7 346.512 218.5C344.712 221.233 342.212 223.333 339.012 224.8C335.878 226.267 332.212 227 328.012 227H291.612ZM314.012 215H326.412C329.278 215 331.578 214.3 333.312 212.9C335.112 211.5 336.012 209.5 336.012 206.9V205.9C336.012 203.3 335.145 201.3 333.412 199.9C331.678 198.5 329.345 197.8 326.412 197.8H314.012V215ZM314.012 185.8H326.212C328.945 185.8 331.178 185.1 332.912 183.7C334.712 182.3 335.612 180.367 335.612 177.9V176.9C335.612 174.367 334.745 172.433 333.012 171.1C331.278 169.7 329.012 169 326.212 169H314.012V185.8ZM384.018 228.4C379.085 228.4 374.651 227.4 370.718 225.4C366.785 223.4 363.685 220.5 361.418 216.7C359.151 212.9 358.018 208.333 358.018 203V201.4C358.018 196.067 359.151 191.5 361.418 187.7C363.685 183.9 366.785 181 370.718 179C374.651 177 379.085 176 384.018 176C388.951 176 393.385 177 397.318 179C401.251 181 404.351 183.9 406.618 187.7C408.885 191.5 410.018 196.067 410.018 201.4V203C410.018 208.333 408.885 212.9 406.618 216.7C404.351 220.5 401.251 223.4 397.318 225.4C393.385 227.4 388.951 228.4 384.018 228.4ZM384.018 217.2C387.885 217.2 391.085 215.967 393.618 213.5C396.151 210.967 397.418 207.367 397.418 202.7V201.7C397.418 197.033 396.151 193.467 393.618 191C391.151 188.467 387.951 187.2 384.018 187.2C380.151 187.2 376.951 188.467 374.418 191C371.885 193.467 370.618 197.033 370.618 201.7V202.7C370.618 207.367 371.885 210.967 374.418 213.5C376.951 215.967 380.151 217.2 384.018 217.2ZM414.026 227L432.026 202L414.226 177.4H428.826L440.126 193.9H441.926L453.226 177.4H467.826L450.026 202L468.026 227H453.226L441.926 210.3H440.126L428.826 227H414.026Z" fill="#260242"/>
</svg>
